<?xml version="1.0" encoding="UTF-8"?>
<svg width="145px" height="50px" viewBox="0 0 145 50" version="1.1" xmlns="http://www.w3.org/2000/svg" xmlns:xlink="http://www.w3.org/1999/xlink">
    <!-- Generator: Sketch 52.3 (67297) - http://www.bohemiancoding.com/sketch -->
    <title>blockone_logo</title>
    <desc>Created with Sketch.</desc>
    <g id="Page-1" stroke="none" stroke-width="1" fill="none" fill-rule="evenodd">
        <g id="blockone_logo" fill="#FFFFFF">
            <path d="M37.2340461,31.602133 C39.472805,31.602133 40.8857837,29.8431082 40.8857837,27.3374876 C40.8857837,24.8323812 39.472805,23.0466188 37.2340461,23.0466188 C35.9280177,23.0466188 34.5422908,23.8461755 33.9288688,24.8056436 L33.9288688,29.8965833 C34.5422908,30.8555372 35.9280177,31.602133 37.2340461,31.602133 Z M31.1306773,15.9837819 L33.9288688,15.9837819 L33.9288688,22.6733209 C34.9418121,21.3143316 36.4344894,20.56825 38.0598262,20.56825 C41.3650035,20.56825 43.7636738,23.1797926 43.7636738,27.3374876 C43.7636738,31.5753954 41.338266,34.0805018 38.0598262,34.0805018 C36.3810142,34.0805018 34.9150745,33.2814592 33.9288688,32.0016543 L33.9288688,33.7606791 L31.1306773,33.7606791 L31.1306773,15.9837819 Z" id="Fill-1"></path>
            <polygon id="Fill-3" points="46.6159574 33.760422 49.4141489 33.760422 49.4141489 15.9835248 46.6159574 15.9835248"></polygon>
            <path d="M62.580766,27.3109043 C62.580766,25.0454078 61.248,23.046773 58.8493298,23.046773 C56.4773972,23.046773 55.1446312,25.0454078 55.1446312,27.3109043 C55.1446312,29.6031383 56.4773972,31.6022872 58.8493298,31.6022872 C61.248,31.6022872 62.580766,29.6031383 62.580766,27.3109043 M52.2394894,27.3109043 C52.2394894,23.6329433 54.7713333,20.5678901 58.8493298,20.5678901 C62.9802872,20.5678901 65.4853936,23.6329433 65.4853936,27.3109043 C65.4853936,31.0156028 62.9802872,34.080656 58.8493298,34.080656 C54.7713333,34.080656 52.2394894,31.0156028 52.2394894,27.3109043" id="Fill-5"></path>
            <path d="M74.1744929,20.5679929 C76.6801135,20.5679929 78.1990142,21.6338972 79.1055213,22.860227 L77.2662837,24.5657766 C76.5464255,23.5528333 75.5602199,23.0463617 74.3081809,23.0463617 C71.9624716,23.0463617 70.4163191,24.8059007 70.4163191,27.3110071 C70.4163191,29.8161135 71.9624716,31.6018759 74.3081809,31.6018759 C75.5602199,31.6018759 76.5464255,31.0686667 77.2662837,30.082461 L79.1055213,31.7885248 C78.1990142,33.0148546 76.6801135,34.0807589 74.1744929,34.0807589 C70.256922,34.0807589 67.5116915,31.2290922 67.5116915,27.3110071 C67.5116915,23.4196596 70.256922,20.5679929 74.1744929,20.5679929" id="Fill-6"></path>
            <polygon id="Fill-7" points="86.1413121 28.4567642 84.3555496 30.2960018 84.3555496 33.7605762 81.5573582 33.7605762 81.5573582 15.9836791 84.3555496 15.9836791 84.3555496 27.0972606 90.0326596 20.8879699 93.4977482 20.8879699 88.140461 26.724477 93.6041844 33.7605762 90.0861348 33.7605762"></polygon>
            <path d="M97.0155408,30.3226879 C98.028484,30.3226879 98.881516,31.1752057 98.881516,32.1881489 C98.881516,33.2010922 98.028484,34.0541241 97.0155408,34.0541241 C96.0025975,34.0541241 95.1500798,33.2010922 95.1500798,32.1881489 C95.1500798,31.1752057 96.0025975,30.3226879 97.0155408,30.3226879" id="Fill-8"></path>
            <path d="M111.6482,27.3109043 C111.6482,25.0454078 110.315434,23.046773 107.916764,23.046773 C105.544832,23.046773 104.212066,25.0454078 104.212066,27.3109043 C104.212066,29.6031383 105.544832,31.6022872 107.916764,31.6022872 C110.315434,31.6022872 111.6482,29.6031383 111.6482,27.3109043 M101.306924,27.3109043 C101.306924,23.6329433 103.838768,20.5678901 107.916764,20.5678901 C112.047722,20.5678901 114.552828,23.6329433 114.552828,27.3109043 C114.552828,31.0156028 112.047722,34.080656 107.916764,34.080656 C103.838768,34.080656 101.306924,31.0156028 101.306924,27.3109043" id="Fill-9"></path>
            <path d="M126.066959,25.7115851 C126.066959,23.7129504 125.054016,23.0465674 123.48164,23.0465674 C122.042438,23.0465674 120.816622,23.8995993 120.176977,24.7788546 L120.176977,33.7606277 L117.378785,33.7606277 L117.378785,20.8880213 L120.176977,20.8880213 L120.176977,22.6470461 C121.029495,21.6341028 122.682083,20.5681986 124.707456,20.5681986 C127.479424,20.5681986 128.865151,22.0603617 128.865151,24.699156 L128.865151,33.7606277 L126.066959,33.7606277 L126.066959,25.7115851 Z" id="Fill-10"></path>
            <path d="M134.595684,26.2714805 L141.84517,26.2714805 C141.791695,24.7520656 140.752528,22.859867 138.220684,22.859867 C135.822014,22.859867 134.729372,24.6991046 134.595684,26.2714805 M138.220684,20.5681472 C142.08478,20.5681472 144.563663,23.52625 144.563663,27.5775089 L144.563663,28.2438918 L134.622422,28.2438918 C134.835809,30.1895656 136.301234,31.7881649 138.726642,31.7881649 C139.979709,31.7881649 141.471872,31.2822074 142.378379,30.3757004 L143.65767,32.2149379 C142.378379,33.4407535 140.485667,34.0809131 138.433557,34.0809131 C134.568947,34.0809131 131.691057,31.3886436 131.691057,27.3106472 C131.691057,23.5797252 134.40955,20.5681472 138.220684,20.5681472" id="Fill-11"></path>
            <path d="M5.33054965,29.3184344 L11.5496099,29.3184344 L11.5496099,34.6484699 L0,34.6484699 L0,0.000154255319 L5.33054965,0.000154255319 L5.33054965,29.3184344 Z M15.1036525,20.4338422 L8.88407801,20.4338422 L8.88407801,15.1032926 L20.4336879,15.1032926 L20.4336879,49.7521223 L15.1036525,49.7521223 L15.1036525,20.4338422 Z" id="Fill-12"></path>
        </g>
    </g>
</svg>