<?xml version="1.0" encoding="UTF-8"?>
<svg width="30px" height="30px" viewBox="0 0 30 30" version="1.1" xmlns="http://www.w3.org/2000/svg" xmlns:xlink="http://www.w3.org/1999/xlink">
    <!-- Generator: Sketch 52.3 (67297) - http://www.bohemiancoding.com/sketch -->
    <title>new_youtube</title>
    <desc>Created with Sketch.</desc>
    <g id="Landing-Assets-" stroke="none" stroke-width="1" fill="none" fill-rule="evenodd">
        <g id="New-Footer-Icons" transform="translate(-180.000000, -43.000000)">
            <rect id="Rectangle-Copy-3" fill-rule="nonzero" x="180" y="43" width="30" height="30"></rect>
            <path d="M198.73828,58.3430286 L192.8836,61.5187429 C192.6288,61.6545143 192.4,61.4724571 192.4,61.1865143 L192.4,54.6679429 C192.4,54.3778857 192.63608,54.1958286 192.89088,54.3393143 L198.7856,57.6821714 C199.04612,57.8292571 199.00192,58.2016 198.73828,58.3430286 Z M208,54.598 C208,51.5061143 205.46604,49 202.34032,49 L187.6602,49 C184.53448,49 182,51.5061143 182,54.598 L182,61.402 C182,64.4938857 184.53448,67 187.6602,67 L202.34032,67 C205.46604,67 208,64.4938857 208,61.402 L208,54.598 Z" id="Fill-98" fill="#FFFFFE"></path>
        </g>
    </g>
</svg>