<?xml version="1.0" encoding="UTF-8"?>
<svg width="30px" height="30px" viewBox="0 0 30 30" version="1.1" xmlns="http://www.w3.org/2000/svg" xmlns:xlink="http://www.w3.org/1999/xlink">
    <!-- Generator: Sketch 52.3 (67297) - http://www.bohemiancoding.com/sketch -->
    <title>new_ig</title>
    <desc>Created with Sketch.</desc>
    <g id="Landing-Assets-" stroke="none" stroke-width="1" fill="none" fill-rule="evenodd">
        <g id="New-Footer-Icons" transform="translate(-133.000000, -43.000000)">
            <rect id="Rectangle-Copy-4" fill-rule="nonzero" x="133" y="43" width="30" height="30"></rect>
            <g id="Group-3" transform="translate(139.000000, 49.000000)" fill="#908D99">
                <path d="M13.5483333,3.16333333 C12.9746667,3.16333333 12.5096667,3.62833333 12.5096667,4.20166667 C12.5096667,4.77533333 12.9746667,5.24033333 13.5483333,5.24033333 C14.1216667,5.24033333 14.5866667,4.77533333 14.5866667,4.20166667 C14.5866667,3.62833333 14.1216667,3.16333333 13.5483333,3.16333333" id="Fill-93"></path>
                <path d="M8.93066667,11.6526667 C7.38966667,11.6526667 6.136,10.399 6.136,8.858 C6.136,7.317 7.38966667,6.06333333 8.93066667,6.06333333 C10.472,6.06333333 11.7253333,7.317 11.7253333,8.858 C11.7253333,10.399 10.472,11.6526667 8.93066667,11.6526667 Z M8.93066667,4.495 C6.525,4.495 4.568,6.45233333 4.568,8.858 C4.568,11.2636667 6.525,13.221 8.93066667,13.221 C11.3363333,13.221 13.2936667,11.2636667 13.2936667,8.858 C13.2936667,6.45233333 11.3363333,4.495 8.93066667,4.495 Z" id="Fill-94"></path>
                <path d="M5.32133333,1.66666667 C3.306,1.66666667 1.66666667,3.306 1.66666667,5.32133333 L1.66666667,12.3946667 C1.66666667,14.41 3.306,16.0493333 5.32133333,16.0493333 L12.3943333,16.0493333 C14.4096667,16.0493333 16.0493333,14.41 16.0493333,12.3946667 L16.0493333,5.32133333 C16.0493333,3.306 14.4096667,1.66666667 12.3943333,1.66666667 L5.32133333,1.66666667 Z M12.3943333,17.716 L5.32133333,17.716 C2.38733333,17.716 0,15.329 0,12.3946667 L0,5.32133333 C0,2.387 2.38733333,0 5.32133333,0 L12.3943333,0 C15.3286667,0 17.716,2.387 17.716,5.32133333 L17.716,12.3946667 C17.716,15.329 15.3286667,17.716 12.3943333,17.716 Z" id="Fill-95"></path>
            </g>
        </g>
    </g>
</svg>