<?xml version="1.0" encoding="UTF-8"?>
<svg width="30px" height="30px" viewBox="0 0 30 30" version="1.1" xmlns="http://www.w3.org/2000/svg" xmlns:xlink="http://www.w3.org/1999/xlink">
    <!-- Generator: Sketch 52.3 (67297) - http://www.bohemiancoding.com/sketch -->
    <title>new_medium</title>
    <desc>Created with Sketch.</desc>
    <g id="Landing-Assets-" stroke="none" stroke-width="1" fill="none" fill-rule="evenodd">
        <g id="New-Footer-Icons" transform="translate(-274.000000, -43.000000)" fill-rule="nonzero">
            <rect id="Rectangle" x="274" y="43" width="30" height="30"></rect>
            <g id="Group-12" transform="translate(279.000000, 50.000000)" fill="#FFFFFF">
                <path d="M2.37161531,3.26396237 C2.39646379,3.01656265 2.30283969,2.77203554 2.11951447,2.60552615 L0.25210084,0.338624338 L0.25210084,0 L6.05042017,0 L10.5322129,9.90476185 L14.4724557,0 L20,0 L20,0.338624338 L18.4033614,1.88124632 C18.2657136,1.98697657 18.1974333,2.16075172 18.2259571,2.33274545 L18.2259571,13.6672546 C18.1974333,13.8392483 18.2657136,14.0130234 18.4033614,14.1187537 L19.9626518,15.6613757 L19.9626518,16 L12.1195145,16 L12.1195145,15.6613757 L13.7348273,14.0811288 C13.8935574,13.9212228 13.8935574,13.8741917 13.8935574,13.6296297 L13.8935574,4.46796003 L9.40242763,15.9623751 L8.79551821,15.9623751 L3.56676003,4.46796003 L3.56676003,12.1716637 C3.52316455,12.4955491 3.62991144,12.8216308 3.85620915,13.0558495 L5.95704948,15.6237508 L5.95704948,15.9623751 L0,15.9623751 L0,15.6237508 L2.10084034,13.0558495 C2.3254904,12.8212425 2.42601279,12.4929977 2.37161531,12.1716637 L2.37161531,3.26396237 Z" id="Shape"></path>
            </g>
        </g>
    </g>
</svg>