<?xml version="1.0" encoding="UTF-8"?>
<svg width="30px" height="30px" viewBox="0 0 30 30" version="1.1" xmlns="http://www.w3.org/2000/svg" xmlns:xlink="http://www.w3.org/1999/xlink">
    <!-- Generator: Sketch 52.3 (67297) - http://www.bohemiancoding.com/sketch -->
    <title>new_twitter</title>
    <desc>Created with Sketch.</desc>
    <g id="Landing-Assets-" stroke="none" stroke-width="1" fill="none" fill-rule="evenodd">
        <g id="New-Footer-Icons" transform="translate(-86.000000, -43.000000)">
            <rect id="Rectangle-Copy-5" fill-rule="nonzero" x="86" y="43" width="30" height="30"></rect>
            <g id="Group-10" transform="translate(90.000000, 49.000000)" fill="#908D99">
                <g id="Group-2">
                    <path d="M21.6548565,2.1412731 C20.9644965,2.45298042 20.2046165,2.64219993 19.4592565,2.76688286 C19.8130165,2.70761456 20.3344165,2.06883408 20.5429765,1.81024871 C20.8610965,1.41600481 21.1255365,0.966882857 21.2742565,0.481760905 C21.2931765,0.444004808 21.3076965,0.396151149 21.2694165,0.367614564 C21.2218965,0.348736515 21.1910965,0.358395052 21.1532565,0.3772731 C20.3212165,0.822004808 19.4610165,1.14468773 18.5453765,1.37298042 C18.4692565,1.39185847 18.4129365,1.37298042 18.3654165,1.32556578 C18.2892965,1.23995603 18.2180165,1.15961456 18.1374965,1.09288286 C17.7524965,0.76624871 17.3393365,0.509858466 16.8738165,0.320638954 C16.2626565,0.0717121249 15.5947365,-0.0336537288 14.9360565,0.00937066144 C14.2954165,0.0506389541 13.6662165,0.231077979 13.0977365,0.527419442 C12.5279365,0.82419993 12.0197365,1.23732188 11.6149365,1.73605359 C11.1960565,2.25146822 10.8871765,2.86039505 10.7292165,3.50576091 C10.5765365,4.12873652 10.5888565,4.74512676 10.6821365,5.37468773 C10.6962165,5.47917554 10.6869765,5.49322432 10.5923765,5.47917554 C7.00989654,4.94707798 4.04033654,3.66819993 1.63001654,0.927370661 C1.52529654,0.808395052 1.46853654,0.808395052 1.38273654,0.936590174 C0.32805654,2.51400481 0.83977654,5.04893164 2.15757654,6.29444383 C2.33313654,6.46039505 2.51353654,6.62634627 2.70845654,6.77780969 C2.63717654,6.79229749 1.76025654,6.69746822 0.97881654,6.29444383 C0.87453654,6.22815115 0.82173654,6.26634627 0.81249654,6.38444383 C0.80281654,6.55522432 0.81733654,6.71195603 0.84065654,6.8967853 C1.04305654,8.49615115 2.15317654,9.97522432 3.67337654,10.5521024 C3.85377654,10.6280536 4.05309654,10.6943463 4.24801654,10.7277121 C3.90129654,10.8032243 3.54489654,10.8576633 2.55181654,10.779956 C2.42817654,10.7562487 2.38065654,10.8177121 2.42817654,10.9362487 C3.17441654,12.9658585 4.78525654,13.569956 5.99173654,13.9141511 C6.15321654,13.9422487 6.31513654,13.9422487 6.47705654,13.9800048 C6.46737654,13.9944926 6.45769654,13.9944926 6.44845654,14.0085414 C6.04805654,14.6174682 4.66073654,15.0705414 4.01437654,15.2957609 C2.83957654,15.7053707 1.56005654,15.8897609 0.31793654,15.7677121 C0.11949654,15.7387365 0.0776965402,15.7409316 0.0235765402,15.7677121 C-0.0305434598,15.801078 0.0169765402,15.8484926 0.0807765402,15.9002975 C0.33289654,16.0662487 0.58897654,16.2133219 0.85033654,16.3555658 C1.63925654,16.772639 2.46161654,17.1049804 3.32137654,17.3416146 C7.76185654,18.5651755 12.7637765,17.6660536 16.0976565,14.361078 C18.7160965,11.7651268 19.6334965,8.18576091 19.6334965,4.60200481 C19.6334965,4.461517 19.7998165,4.38424871 19.8983765,4.31005359 C20.5794965,3.79946822 21.1211365,3.18834627 21.6293365,2.50566334 C21.7432965,2.35244383 21.7362565,2.21590725 21.7362565,2.16015115 C21.7362565,2.15049261 21.7362565,2.1412731 21.7362565,2.1412731 C21.7362565,2.08376091 21.7432965,2.10132188 21.6548565,2.1412731" id="Fill-35"></path>
                </g>
            </g>
        </g>
    </g>
</svg>