<?xml version="1.0" encoding="UTF-8"?>
<svg width="30px" height="30px" viewBox="0 0 30 30" version="1.1" xmlns="http://www.w3.org/2000/svg" xmlns:xlink="http://www.w3.org/1999/xlink">
    <!-- Generator: Sketch 52.3 (67297) - http://www.bohemiancoding.com/sketch -->
    <title>new_facebook</title>
    <desc>Created with Sketch.</desc>
    <g id="Landing-Assets-" stroke="none" stroke-width="1" fill="none" fill-rule="evenodd">
        <g id="New-Footer-Icons" transform="translate(-39.000000, -43.000000)">
            <rect id="Rectangle-Copy-6" fill-rule="nonzero" x="39" y="43" width="30" height="30"></rect>
            <g id="Group-11" transform="translate(50.000000, 49.000000)" fill="#FFFFFE">
                <g id="Group">
                    <path d="M1.73366667,9.03705882 L1.73366667,17.7070588 C1.73366667,17.8316471 1.82933333,17.9325882 1.947,17.9325882 L4.988,17.9325882 C5.10566667,17.9325882 5.201,17.8316471 5.201,17.7070588 L5.201,8.89588235 L7.40566667,8.89588235 C7.51633333,8.89588235 7.60866667,8.80588235 7.618,8.68905882 L7.83,6.03423529 C7.84066667,5.90223529 7.74266667,5.78929412 7.61766667,5.78929412 L5.201,5.78929412 L5.201,3.90564706 C5.201,3.46411765 5.539,3.10623529 5.956,3.10623529 L7.655,3.10623529 C7.773,3.10623529 7.86833333,3.00529412 7.86833333,2.88070588 L7.86833333,0.225882353 C7.86833333,0.100941176 7.773,0 7.655,0 L4.78433333,0 C3.09966667,0 1.73366667,1.446 1.73366667,3.22976471 L1.73366667,5.78929412 L0.213333333,5.78929412 C0.0956666667,5.78929412 0,5.89023529 0,6.01517647 L0,8.67 C0,8.79458824 0.0956666667,8.89588235 0.213333333,8.89588235 L1.73366667,8.89588235 L1.73366667,9.03705882" id="Fill-67"></path>
                </g>
            </g>
        </g>
    </g>
</svg>