<?xml version="1.0" encoding="UTF-8"?>
<svg width="30px" height="30px" viewBox="0 0 30 30" version="1.1" xmlns="http://www.w3.org/2000/svg" xmlns:xlink="http://www.w3.org/1999/xlink">
    <!-- Generator: Sketch 52.3 (67297) - http://www.bohemiancoding.com/sketch -->
    <title>new_github</title>
    <desc>Created with Sketch.</desc>
    <g id="Landing-Assets-" stroke="none" stroke-width="1" fill="none" fill-rule="evenodd">
        <g id="New-Footer-Icons" transform="translate(-227.000000, -43.000000)" fill-rule="nonzero">
            <rect id="Rectangle-Copy-2" x="227" y="43" width="30" height="30"></rect>
            <path d="M241.870968,48 C236.278226,48 232,52.3547718 232,58.0908291 C232,62.6771937 234.814516,66.6018645 238.834677,67.9831501 C239.350806,68.0782686 239.532258,67.7515573 239.532258,67.4827443 C239.532258,67.226338 239.520161,65.8119677 239.520161,64.9434947 C239.520161,64.9434947 236.697581,65.5638325 236.104839,63.7110901 C236.104839,63.7110901 235.645161,62.5076347 234.983871,62.1974657 C234.983871,62.1974657 234.060484,61.5481788 235.048387,61.5605855 C235.048387,61.5605855 236.052419,61.6432973 236.604839,62.6275667 C237.487903,64.2239027 238.967742,63.7648527 239.544355,63.4919041 C239.637097,62.8302104 239.899194,62.3711603 240.189516,62.0982117 C237.935484,61.8418054 235.66129,61.5068229 235.66129,57.5283895 C235.66129,56.3911034 235.967742,55.8203926 236.612903,55.0925295 C236.508065,54.8237164 236.165323,53.7153795 236.717742,52.2844668 C237.560484,52.0156537 239.5,53.4010749 239.5,53.4010749 C240.306452,53.1694821 241.173387,53.0495502 242.032258,53.0495502 C242.891129,53.0495502 243.758065,53.1694821 244.564516,53.4010749 C244.564516,53.4010749 246.504032,52.0115181 247.346774,52.2844668 C247.899194,53.719515 247.556452,54.8237164 247.451613,55.0925295 C248.096774,55.8245282 248.491935,56.395239 248.491935,57.5283895 C248.491935,61.5192297 246.116935,61.8376698 243.862903,62.0982117 C244.233871,62.424923 244.548387,63.0452608 244.548387,64.0171235 C244.548387,65.4108158 244.53629,67.1353551 244.53629,67.4744731 C244.53629,67.7432862 244.721774,68.0699974 245.233871,67.974879 C249.266129,66.6018645 252,62.6771937 252,58.0908291 C252,52.3547718 247.46371,48 241.870968,48 Z" id="Path" fill="#908D99"></path>
        </g>
    </g>
</svg>